<?xml version="1.0" ?>
<!-- Uploaded to: SVG Repo, www.svgrepo.com, Generator: SVG Repo Mixer Tools -->
<svg width="800px" height="800px" viewBox="0 0 512 512" version="1.1" xml:space="preserve" xmlns="http://www.w3.org/2000/svg" xmlns:xlink="http://www.w3.org/1999/xlink">
<style type="text/css">
	.st0{display:none;}
	.st1{fill:#FFE2D2;}
	.st2{fill:#FFDE83;}
	.st3{fill:#F57070;}
	.st4{fill:#DBDBEF;}
	.st5{fill:#BCE2FF;}
	.st6{fill:#48446D;}
	.st7{fill:#6E78FF;}
	.st8{fill:#FFBE83;}
	.st9{fill:#F5949E;}
	.st10{fill:#D0FF67;}
	.st11{fill:#C69C6D;}
	.st12{fill:#C5BDD3;}
	.st13{fill:#FFE2B8;}
	.st14{fill:#F54670;}
</style>
<g class="st0" id="Layer_1"/>
<g id="Layer_2">
<g>
<path class="st4" d="M431.45,66.46H381.3c-3.7,0-6.72-2.87-6.97-6.5c-0.02-0.17-0.03-0.33-0.03-0.5c0-0.17,0.01-0.33,0.03-0.5    h-11.89c0.02,0.17,0.03,0.33,0.03,0.5c0,0.17-0.01,0.33-0.03,0.5c-0.12,1.67-0.84,3.27-2.02,4.45c-1.31,1.31-3.11,2.05-4.95,2.05    c-1.84,0-3.65-0.74-4.95-2.05c-1.18-1.18-1.9-2.78-2.02-4.45c-0.02-0.17-0.03-0.33-0.03-0.5c0-0.17,0.01-0.33,0.02-0.5h-13.44    c0.02,0.17,0.03,0.33,0.03,0.5c0,0.17-0.01,0.33-0.03,0.5c-0.25,3.63-3.27,6.5-6.97,6.5H80.55c-12.71,0-23.05,10.34-23.05,23.05    v233.22c0,12.71,10.34,23.05,23.05,23.05h53.47c3.49,0,6.37,2.54,6.9,5.87c0.03,0.17,0.06,0.33,0.07,0.5    c0.02,0.17,0.02,0.33,0.02,0.5h21.67c0-0.17,0.01-0.33,0.03-0.5c0.01-0.17,0.04-0.33,0.07-0.5c0.52-3.33,3.4-5.87,6.89-5.87    c10.58,0,20.63,5.1,26.88,13.64L256,440.68l59.45-81.26c6.25-8.54,16.3-13.64,26.88-13.64h89.12c12.71,0,23.05-10.34,23.05-23.05    V89.51C454.5,76.8,444.16,66.46,431.45,66.46z M351.64,238.91c-2,3.18-6.14,4.2-9.37,2.37l-5.85,7.15c0.26,0.28,0.5,0.58,0.72,0.9    c0.25,0.38,0.46,0.78,0.64,1.21c0.18,0.42,0.31,0.86,0.4,1.31c0.09,0.45,0.14,0.91,0.14,1.36c0,0.46-0.05,0.92-0.14,1.37    c-0.09,0.45-0.22,0.89-0.4,1.31c-0.18,0.42-0.39,0.83-0.64,1.21c-0.26,0.38-0.55,0.74-0.87,1.06c-0.33,0.33-0.68,0.62-1.07,0.87    c-0.38,0.26-0.78,0.47-1.21,0.65c-0.42,0.17-0.86,0.31-1.31,0.4c-0.45,0.09-0.91,0.13-1.36,0.13c-0.46,0-0.92-0.04-1.37-0.13    c-0.45-0.09-0.89-0.23-1.31-0.4c-0.34-0.15-0.67-0.32-0.99-0.52l-7.98,9.77c2.74,2.68,2.82,7.07,0.16,9.85    c-5.57,5.79-11.65,11.72-18.1,17.62c-0.2,0.18-0.4,0.35-0.6,0.51c-0.56,0.5-1.13,0.97-1.71,1.44l-0.53,0.43    c-0.97,0.8-1.94,1.59-3,2.36c-0.81,0.59-1.58,1.11-2.34,1.61l-0.21,0.14c-0.9,0.59-1.98,1.3-3.15,1.99    c-0.86,0.5-1.72,0.97-2.59,1.42c-1.16,0.62-2.32,1.19-3.46,1.71c-0.84,0.38-1.67,0.75-2.52,1.1c-1.16,0.47-2.4,0.93-3.79,1.41    l-0.29,0.1c-0.71,0.24-1.41,0.47-2.13,0.69c-1.53,0.46-3.01,0.81-4.14,1.07l-0.57,0.14c-0.55,0.13-1.11,0.26-1.66,0.37    c-1.72,0.34-3.41,0.56-4.68,0.72c-0.16,0.02-0.33,0.04-0.49,0.07c-0.44,0.06-0.88,0.13-1.32,0.17c-2.3,0.22-4.44,0.33-6.53,0.33    h-0.04c-2.09,0-4.23-0.11-6.52-0.33c-0.45-0.04-0.9-0.11-1.34-0.17c-0.17-0.03-0.33-0.05-0.5-0.08c-1.35-0.16-2.97-0.38-4.65-0.71    c-0.57-0.11-1.13-0.24-1.69-0.38l-0.57-0.13c-1.2-0.28-2.62-0.62-4.12-1.07c-0.71-0.21-1.43-0.45-2.14-0.7l-0.3-0.1    c-1.4-0.48-2.63-0.93-3.76-1.4c-0.85-0.34-1.7-0.72-2.55-1.1c-1.13-0.52-2.28-1.09-3.43-1.7c-1.04-0.55-1.85-0.99-2.61-1.44    c-1.16-0.68-2.23-1.38-3.12-1.97l-0.2-0.13c-0.76-0.51-1.55-1.03-2.38-1.63c-1.04-0.77-1.99-1.54-2.91-2.29l-0.59-0.49    c-0.58-0.47-1.17-0.94-1.73-1.45c-0.23-0.18-0.42-0.34-0.6-0.51c-46.24-42.34-69.68-81.87-69.68-117.5    c0-37.34,30.38-67.71,67.71-67.71c18.09,0,35.06,7.09,47.7,19.69c12.64-12.6,29.62-19.69,47.7-19.69    c37.33,0,67.71,30.37,67.71,67.71C371.41,197.81,364.76,218,351.64,238.91z"/>
<path class="st6" d="M225.58,159.79c-2.38,3.04-6.78,3.58-9.82,1.19c-3.34-2.61-7.35-3.99-11.59-3.99    c-10.46,0-18.98,8.52-18.98,18.98c0,3.87-3.13,7-7,7c-3.86,0-7-3.13-7-7c0-18.18,14.8-32.98,32.98-32.98    c7.4,0,14.39,2.41,20.21,6.97C227.43,152.34,227.97,156.74,225.58,159.79z"/>
<path class="st6" d="M242.14,173.39c0,1.84-0.74,3.65-2.05,4.95c-1.3,1.31-3.11,2.05-4.95,2.05c-0.45,0-0.91-0.04-1.37-0.13    c-0.44-0.09-0.88-0.23-1.31-0.4c-0.42-0.18-0.82-0.4-1.2-0.65c-0.39-0.25-0.75-0.54-1.07-0.87c-1.3-1.3-2.05-3.1-2.05-4.95    c0-0.45,0.05-0.91,0.14-1.37c0.09-0.44,0.22-0.88,0.4-1.3c0.17-0.43,0.39-0.83,0.64-1.21c0.26-0.39,0.55-0.74,0.87-1.07    c0.32-0.32,0.68-0.61,1.07-0.87c0.38-0.25,0.78-0.47,1.2-0.64c0.43-0.18,0.87-0.31,1.31-0.4c0.91-0.18,1.84-0.18,2.74,0    c0.45,0.09,0.89,0.22,1.31,0.4c0.42,0.17,0.83,0.39,1.21,0.64c0.38,0.26,0.74,0.55,1.06,0.87c0.33,0.33,0.62,0.68,0.87,1.07    c0.25,0.38,0.47,0.78,0.65,1.21c0.17,0.42,0.31,0.86,0.4,1.3C242.1,172.48,242.14,172.94,242.14,173.39z"/>
<path class="st6" d="M371.41,178.9c0,18.91-6.65,39.1-19.77,60.01c-2,3.18-6.14,4.2-9.37,2.37c-0.1-0.05-0.19-0.1-0.28-0.16    c-0.2-0.12-0.39-0.25-0.56-0.39c-2.82-2.18-3.59-6.18-1.65-9.26c11.7-18.65,17.63-36.34,17.63-52.57    c0-29.62-24.1-53.71-53.71-53.71c-16.54,0-31.92,7.48-42.2,20.54c-1.33,1.69-3.35,2.67-5.5,2.67c-2.14,0-4.17-0.98-5.5-2.67    c-10.28-13.06-25.66-20.54-42.2-20.54c-29.61,0-53.71,24.09-53.71,53.71c0,31.52,21.88,67.54,65.04,107.09    c0.19,0.15,0.35,0.29,0.51,0.43c0.42,0.37,0.84,0.72,1.27,1.06l0.6,0.49c0.87,0.71,1.63,1.33,2.36,1.87    c0.59,0.44,1.21,0.84,1.83,1.25l0.21,0.14c0.74,0.49,1.61,1.06,2.47,1.56c0.68,0.4,1.37,0.78,2.07,1.14    c0.92,0.49,1.83,0.94,2.72,1.34c0.66,0.31,1.33,0.6,2.01,0.88c0.88,0.36,1.85,0.72,2.98,1.11l0.32,0.1    c0.54,0.19,1.07,0.37,1.61,0.53c1.13,0.34,2.29,0.62,3.27,0.85l0.71,0.17c0.36,0.08,0.72,0.17,1.08,0.24    c1.27,0.25,2.58,0.42,3.7,0.56c0.28,0.04,0.57,0.08,0.85,0.12c0.2,0.03,0.4,0.07,0.6,0.09c1.82,0.17,3.5,0.26,5.12,0.26h0.16    c1.62,0,3.3-0.09,5.12-0.27c0.2-0.01,0.39-0.05,0.59-0.08c0.28-0.04,0.56-0.08,0.85-0.12c1.11-0.13,2.43-0.31,3.71-0.56    c0.36-0.07,0.71-0.16,1.06-0.24l0.71-0.17c0.93-0.21,2.13-0.5,3.29-0.85c0.54-0.16,1.07-0.34,1.6-0.52l0.31-0.11    c1.13-0.38,2.11-0.74,3.01-1.11c0.67-0.28,1.33-0.57,1.99-0.87c0.89-0.41,1.81-0.86,2.74-1.35c0.69-0.37,1.38-0.74,2.05-1.13    c0.87-0.52,1.75-1.09,2.49-1.58l0.23-0.15c0.6-0.4,1.21-0.8,1.8-1.23c0.74-0.54,1.51-1.18,2.33-1.85l0.65-0.52    c0.42-0.34,0.84-0.68,1.24-1.05c0.18-0.15,0.35-0.29,0.52-0.43c6.19-5.67,12.03-11.36,17.36-16.91c2.46-2.56,6.39-2.84,9.18-0.79    c0.25,0.18,0.49,0.37,0.71,0.59c0.02,0.01,0.04,0.03,0.05,0.05c2.74,2.68,2.82,7.07,0.16,9.85c-5.57,5.79-11.65,11.72-18.1,17.62    c-0.2,0.18-0.4,0.35-0.6,0.51c-0.56,0.5-1.13,0.97-1.71,1.44l-0.53,0.43c-0.97,0.8-1.94,1.59-3,2.36    c-0.81,0.59-1.58,1.11-2.34,1.61l-0.21,0.14c-0.9,0.59-1.98,1.3-3.15,1.99c-0.86,0.5-1.72,0.97-2.59,1.42    c-1.16,0.62-2.32,1.19-3.46,1.71c-0.84,0.38-1.67,0.75-2.52,1.1c-1.16,0.47-2.4,0.93-3.79,1.41l-0.29,0.1    c-0.71,0.24-1.41,0.47-2.13,0.69c-1.53,0.46-3.01,0.81-4.14,1.07l-0.57,0.14c-0.55,0.13-1.11,0.26-1.66,0.37    c-1.72,0.34-3.41,0.56-4.68,0.72c-0.16,0.02-0.33,0.04-0.49,0.07c-0.44,0.06-0.88,0.13-1.32,0.17c-2.3,0.22-4.44,0.33-6.53,0.33    h-0.04c-2.09,0-4.23-0.11-6.52-0.33c-0.45-0.04-0.9-0.11-1.34-0.17c-0.17-0.03-0.33-0.05-0.5-0.08c-1.35-0.16-2.97-0.38-4.65-0.71    c-0.57-0.11-1.13-0.24-1.69-0.38l-0.57-0.13c-1.2-0.28-2.62-0.62-4.12-1.07c-0.71-0.21-1.43-0.45-2.14-0.7l-0.3-0.1    c-1.4-0.48-2.63-0.93-3.76-1.4c-0.85-0.34-1.7-0.72-2.55-1.1c-1.13-0.52-2.28-1.09-3.43-1.7c-1.04-0.55-1.85-0.99-2.61-1.44    c-1.16-0.68-2.23-1.38-3.12-1.97l-0.2-0.13c-0.76-0.51-1.55-1.03-2.38-1.63c-1.04-0.77-1.99-1.54-2.91-2.29l-0.59-0.49    c-0.58-0.47-1.17-0.94-1.73-1.45c-0.23-0.18-0.42-0.34-0.6-0.51c-46.24-42.34-69.68-81.87-69.68-117.5    c0-37.34,30.38-67.71,67.71-67.71c18.09,0,35.06,7.09,47.7,19.69c12.64-12.6,29.62-19.69,47.7-19.69    C341.03,111.19,371.41,141.56,371.41,178.9z"/>
<path class="st6" d="M338.32,253.21c0,0.46-0.05,0.92-0.14,1.37c-0.09,0.45-0.22,0.89-0.4,1.31c-0.18,0.42-0.39,0.83-0.64,1.21    c-0.26,0.38-0.55,0.74-0.87,1.06c-0.33,0.33-0.68,0.62-1.07,0.87c-0.38,0.26-0.78,0.47-1.21,0.65c-0.42,0.17-0.86,0.31-1.31,0.4    c-0.45,0.09-0.91,0.13-1.36,0.13c-0.46,0-0.92-0.04-1.37-0.13c-0.45-0.09-0.89-0.23-1.31-0.4c-0.34-0.15-0.67-0.32-0.99-0.52    c-0.07-0.04-0.15-0.08-0.22-0.13c-0.21-0.14-0.4-0.29-0.59-0.44c-0.17-0.14-0.32-0.28-0.47-0.43c-0.33-0.32-0.62-0.68-0.87-1.06    c-0.26-0.38-0.47-0.79-0.65-1.21c-0.17-0.42-0.31-0.86-0.4-1.31c-0.09-0.45-0.13-0.91-0.13-1.37c0-0.45,0.04-0.91,0.13-1.36    c0.09-0.45,0.23-0.89,0.4-1.31c0.18-0.43,0.39-0.83,0.65-1.21c0.25-0.39,0.54-0.74,0.87-1.07c0.32-0.32,0.68-0.61,1.06-0.87    c0.38-0.25,0.79-0.46,1.21-0.64c0.42-0.17,0.86-0.31,1.31-0.4c0.9-0.18,1.83-0.18,2.73,0c0.45,0.09,0.89,0.23,1.31,0.4    c0.43,0.18,0.83,0.39,1.21,0.64c0.17,0.11,0.33,0.24,0.49,0.36c0.2,0.16,0.39,0.33,0.58,0.51c0.05,0.06,0.1,0.12,0.15,0.17    c0.26,0.28,0.5,0.58,0.72,0.9c0.25,0.38,0.46,0.78,0.64,1.21c0.18,0.42,0.31,0.86,0.4,1.31    C338.27,252.3,338.32,252.76,338.32,253.21z"/>
<path class="st6" d="M335.08,59.46c0,0.17-0.01,0.33-0.03,0.5c-0.25,3.63-3.27,6.5-6.97,6.5H80.55    c-12.71,0-23.05,10.34-23.05,23.05v233.22c0,12.71,10.34,23.05,23.05,23.05h53.47c3.49,0,6.37,2.54,6.9,5.87    c0.03,0.17,0.06,0.33,0.07,0.5c0.02,0.17,0.02,0.33,0.02,0.5c0,0.04,0.01,0.09,0.01,0.13c0,3.86-3.13,7-7,7H80.55    c-20.43,0-37.05-16.62-37.05-37.05V89.51c0-20.43,16.62-37.05,37.05-37.05h247.53c3.7,0,6.72,2.87,6.97,6.5    C335.07,59.13,335.08,59.29,335.08,59.46z"/>
<path class="st6" d="M362.47,59.46c0,0.17-0.01,0.33-0.03,0.5c-0.12,1.67-0.84,3.27-2.02,4.45c-1.31,1.31-3.11,2.05-4.95,2.05    c-1.84,0-3.65-0.74-4.95-2.05c-1.18-1.18-1.9-2.78-2.02-4.45c-0.02-0.17-0.03-0.33-0.03-0.5c0-0.17,0.01-0.33,0.02-0.5    c0.02-0.29,0.06-0.58,0.12-0.86c0.09-0.45,0.22-0.89,0.39-1.31c0.18-0.43,0.4-0.83,0.65-1.21c0.25-0.39,0.55-0.74,0.87-1.07    c1.3-1.3,3.1-2.05,4.95-2.05c1.84,0,3.65,0.75,4.95,2.05c1.18,1.19,1.9,2.79,2.02,4.45C362.46,59.13,362.47,59.29,362.47,59.46z"/>
<path class="st6" d="M468.5,89.51v233.22c0,20.43-16.62,37.05-37.05,37.05h-89.12c-6.13,0-11.96,2.95-15.58,7.9l-65.1,88.99    c-1.32,1.8-3.42,2.87-5.65,2.87s-4.33-1.07-5.65-2.87l-65.1-88.99c-3.62-4.95-9.45-7.9-15.58-7.9c-3.87,0-7-3.14-7-7    c0-0.04,0.01-0.09,0.01-0.13c0-0.17,0.01-0.33,0.03-0.5c0.01-0.17,0.04-0.33,0.07-0.5c0.52-3.33,3.4-5.87,6.89-5.87    c10.58,0,20.63,5.1,26.88,13.64L256,440.68l59.45-81.26c6.25-8.54,16.3-13.64,26.88-13.64h89.12c12.71,0,23.05-10.34,23.05-23.05    V89.51c0-12.71-10.34-23.05-23.05-23.05H381.3c-3.7,0-6.72-2.87-6.97-6.5c-0.02-0.17-0.03-0.33-0.03-0.5    c0-0.17,0.01-0.33,0.03-0.5c0.25-3.63,3.27-6.5,6.97-6.5h50.15C451.88,52.46,468.5,69.08,468.5,89.51z"/>
<path class="st3" d="M341.43,240.73c-2.82-2.18-3.59-6.18-1.65-9.26c11.7-18.65,17.63-36.34,17.63-52.57    c0-29.62-24.1-53.71-53.71-53.71c-16.54,0-31.92,7.48-42.2,20.54c-1.33,1.69-3.35,2.67-5.5,2.67c-2.14,0-4.17-0.98-5.5-2.67    c-10.28-13.06-25.66-20.54-42.2-20.54c-29.61,0-53.71,24.09-53.71,53.71c0,31.52,21.88,67.54,65.04,107.09    c0.19,0.15,0.35,0.29,0.51,0.43c0.42,0.37,0.84,0.72,1.27,1.06l0.6,0.49c0.87,0.71,1.63,1.33,2.36,1.87    c0.59,0.44,1.21,0.84,1.83,1.25l0.21,0.14c0.74,0.49,1.61,1.06,2.47,1.56c0.68,0.4,1.37,0.78,2.07,1.14    c0.92,0.49,1.83,0.94,2.72,1.34c0.66,0.31,1.33,0.6,2.01,0.88c0.88,0.36,1.85,0.72,2.98,1.11l0.32,0.1    c0.54,0.19,1.07,0.37,1.61,0.53c1.13,0.34,2.29,0.62,3.27,0.85l0.71,0.17c0.36,0.08,0.72,0.17,1.08,0.24    c1.27,0.25,2.58,0.42,3.7,0.56c0.28,0.04,0.57,0.08,0.85,0.12c0.2,0.03,0.4,0.07,0.6,0.09c1.82,0.17,3.5,0.26,5.12,0.26h0.16    c1.62,0,3.3-0.09,5.12-0.27c0.2-0.01,0.39-0.05,0.59-0.08c0.28-0.04,0.56-0.08,0.85-0.12c1.11-0.13,2.43-0.31,3.71-0.56    c0.36-0.07,0.71-0.16,1.06-0.24l0.71-0.17c0.93-0.21,2.13-0.5,3.29-0.85c0.54-0.16,1.07-0.34,1.6-0.52l0.31-0.11    c1.13-0.38,2.11-0.74,3.01-1.11c0.67-0.28,1.33-0.57,1.99-0.87c0.89-0.41,1.81-0.86,2.74-1.35c0.69-0.37,1.38-0.74,2.05-1.13    c0.87-0.52,1.75-1.09,2.49-1.58l0.23-0.15c0.6-0.4,1.21-0.8,1.8-1.23c0.74-0.54,1.51-1.18,2.33-1.85l0.65-0.52    c0.42-0.34,0.84-0.68,1.24-1.05c0.18-0.15,0.35-0.29,0.52-0.43c6.19-5.67,12.03-11.36,17.36-16.91c2.46-2.56,6.39-2.84,9.18-0.79    c0.25,0.18,0.49,0.37,0.71,0.59c0.02,0.01,0.04,0.03,0.05,0.05l7.98-9.77c-0.07-0.04-0.15-0.08-0.22-0.13    c-0.21-0.14-0.4-0.29-0.59-0.44c-0.17-0.14-0.32-0.28-0.47-0.43c-0.33-0.32-0.62-0.68-0.87-1.06c-0.26-0.38-0.47-0.79-0.65-1.21    c-0.17-0.42-0.31-0.86-0.4-1.31c-0.09-0.45-0.13-0.91-0.13-1.37c0-0.45,0.04-0.91,0.13-1.36c0.09-0.45,0.23-0.89,0.4-1.31    c0.18-0.43,0.39-0.83,0.65-1.21c0.25-0.39,0.54-0.74,0.87-1.07c0.32-0.32,0.68-0.61,1.06-0.87c0.38-0.25,0.79-0.46,1.21-0.64    c0.42-0.17,0.86-0.31,1.31-0.4c0.9-0.18,1.83-0.18,2.73,0c0.45,0.09,0.89,0.23,1.31,0.4c0.43,0.18,0.83,0.39,1.21,0.64    c0.17,0.11,0.33,0.24,0.49,0.36c0.2,0.16,0.39,0.33,0.58,0.51c0.05,0.06,0.1,0.12,0.15,0.17l5.85-7.15    c-0.1-0.05-0.19-0.1-0.28-0.16C341.79,241,341.6,240.87,341.43,240.73z M225.58,159.79c-2.38,3.04-6.78,3.58-9.82,1.19    c-3.34-2.61-7.35-3.99-11.59-3.99c-10.46,0-18.98,8.52-18.98,18.98c0,3.87-3.13,7-7,7c-3.86,0-7-3.13-7-7    c0-18.18,14.8-32.98,32.98-32.98c7.4,0,14.39,2.41,20.21,6.97C227.43,152.34,227.97,156.74,225.58,159.79z M240.09,178.34    c-1.3,1.31-3.11,2.05-4.95,2.05c-0.45,0-0.91-0.04-1.37-0.13c-0.44-0.09-0.88-0.23-1.31-0.4c-0.42-0.18-0.82-0.4-1.2-0.65    c-0.39-0.25-0.75-0.54-1.07-0.87c-1.3-1.3-2.05-3.1-2.05-4.95c0-0.45,0.05-0.91,0.14-1.37c0.09-0.44,0.22-0.88,0.4-1.3    c0.17-0.43,0.39-0.83,0.64-1.21c0.26-0.39,0.55-0.74,0.87-1.07c0.32-0.32,0.68-0.61,1.07-0.87c0.38-0.25,0.78-0.47,1.2-0.64    c0.43-0.18,0.87-0.31,1.31-0.4c0.91-0.18,1.84-0.18,2.74,0c0.45,0.09,0.89,0.22,1.31,0.4c0.42,0.17,0.83,0.39,1.21,0.64    c0.38,0.26,0.74,0.55,1.06,0.87c0.33,0.33,0.62,0.68,0.87,1.07c0.25,0.38,0.47,0.78,0.65,1.21c0.17,0.42,0.31,0.86,0.4,1.3    c0.09,0.46,0.13,0.92,0.13,1.37C242.14,175.23,241.4,177.04,240.09,178.34z"/>
</g>
</g>
</svg>